<svg xmlns="http://www.w3.org/2000/svg" width="550" height="70" viewBox="0 0 550 70"><rect width="100%" height="100%" fill="pink" /><path fill="#999999" d="m213.265 26.265-.89 5.27q.84-.17 1.61-.25.77-.08 1.49-.08 1.99 0 3.51.59 1.53.6 2.56 1.65 1.03 1.05 1.56 2.46.52 1.41.52 3.03 0 2.02-.71 3.68-.71 1.66-1.97 2.84-1.25 1.18-2.98 1.83-1.72.65-3.75.65-1.19 0-2.26-.24-1.07-.25-2-.66-.94-.41-1.74-.95-.79-.53-1.42-1.13l1.33-1.83q.42-.6 1.1-.6.44 0 .89.28.46.28 1.04.61.59.34 1.39.62.79.28 1.91.28 1.19 0 2.1-.39.91-.38 1.52-1.07.6-.7.91-1.65.3-.95.3-2.07 0-2.07-1.2-3.23-1.19-1.17-3.54-1.17-1.8 0-3.69.67l-2.7-.77 2.1-12.29h12.5v1.84q0 .93-.58 1.51-.58.57-1.96.57h-6.95Zm20.3 0-.89 5.27q.84-.17 1.61-.25.77-.08 1.49-.08 1.99 0 3.51.59 1.53.6 2.56 1.65 1.03 1.05 1.56 2.46.52 1.41.52 3.03 0 2.02-.71 3.68-.71 1.66-1.97 2.84t-2.98 1.83q-1.72.65-3.75.65-1.19 0-2.26-.24-1.07-.25-2-.66-.94-.41-1.74-.95-.79-.53-1.42-1.13l1.33-1.83q.42-.6 1.1-.6.44 0 .89.28.46.28 1.04.61.59.34 1.39.62.79.28 1.91.28 1.19 0 2.1-.39.91-.38 1.52-1.07.6-.7.91-1.65.3-.95.3-2.07 0-2.07-1.2-3.23-1.19-1.17-3.54-1.17-1.8 0-3.69.67l-2.7-.77 2.1-12.29h12.5v1.84q0 .93-.58 1.51-.58.57-1.96.57h-6.95Zm31.73 8.74q0 3.3-.71 5.75-.71 2.44-1.96 4.03-1.25 1.59-2.96 2.37-1.7.78-3.68.78-1.98 0-3.67-.78t-2.93-2.37q-1.24-1.59-1.94-4.03-.7-2.45-.7-5.75 0-3.33.7-5.76.7-2.43 1.94-4.03 1.24-1.59 2.93-2.37 1.69-.78 3.67-.78t3.68.78q1.71.78 2.96 2.37 1.25 1.6 1.96 4.03t.71 5.76Zm-4.46 0q0-2.75-.41-4.55-.4-1.81-1.07-2.87-.68-1.07-1.55-1.5-.88-.43-1.82-.43-.93 0-1.79.43-.87.43-1.54 1.5-.66 1.06-1.05 2.87-.4 1.8-.4 4.55 0 2.74.4 4.55.39 1.8 1.05 2.87.67 1.06 1.54 1.49.86.43 1.79.43.94 0 1.82-.43.87-.43 1.55-1.49.67-1.07 1.07-2.87.41-1.81.41-4.55Zm32.25 6.86-2.29 2.25-5.94-5.93-5.98 5.97-2.29-2.26 5.98-6-5.7-5.71 2.27-2.27 5.71 5.7 5.67-5.67 2.31 2.28-5.69 5.69 5.95 5.95Zm12.02-19.52h17.49v1.88q0 .84-.18 1.35-.18.52-.35.87l-9.59 19.74q-.3.61-.84 1.04-.54.43-1.45.43h-3.13l9.78-19.34q.33-.59.65-1.09.33-.5.73-.96h-12.11q-.4 0-.7-.29-.3-.3-.3-.7v-2.93Zm38.1 12.66q0 3.3-.71 5.75-.71 2.44-1.96 4.03-1.25 1.59-2.96 2.37-1.7.78-3.68.78-1.98 0-3.67-.78-1.68-.78-2.93-2.37-1.24-1.59-1.94-4.03-.7-2.45-.7-5.75 0-3.33.7-5.76.7-2.43 1.94-4.03 1.25-1.59 2.93-2.37 1.69-.78 3.67-.78t3.68.78q1.71.78 2.96 2.37 1.25 1.6 1.96 4.03t.71 5.76Zm-4.46 0q0-2.75-.4-4.55-.41-1.81-1.08-2.87-.67-1.07-1.55-1.5-.87-.43-1.82-.43-.93 0-1.79.43-.87.43-1.53 1.5-.67 1.06-1.06 2.87-.4 1.8-.4 4.55 0 2.74.4 4.55.39 1.8 1.06 2.87.66 1.06 1.53 1.49.86.43 1.79.43.95 0 1.82-.43.88-.43 1.55-1.49.67-1.07 1.08-2.87.4-1.81.4-4.55Z"/></svg>