<svg xmlns="http://www.w3.org/2000/svg" width="500" height="50" viewBox="0 0 500 50"><rect width="100%" height="100%" fill="#FFC0CB"/><path fill="#FFFFFF" d="m205.91 18.76-.64 3.77q.6-.13 1.15-.18.55-.06 1.06-.06 1.43 0 2.51.42 1.09.43 1.83 1.18t1.11 1.76q.38 1 .38 2.16 0 1.44-.51 2.63t-1.41 2.03q-.9.84-2.13 1.31-1.23.46-2.68.46-.85 0-1.61-.17-.76-.18-1.43-.47-.67-.3-1.24-.68-.57-.38-1.02-.81l.95-1.31q.3-.42.79-.42.31 0 .64.2.32.2.74.43.42.24.99.44.57.2 1.37.2.85 0 1.5-.27.65-.28 1.08-.77.43-.5.65-1.18.22-.68.22-1.48 0-1.47-.86-2.3-.86-.83-2.53-.83-1.29 0-2.64.47l-1.92-.55 1.5-8.77h8.92v1.31q0 .66-.41 1.07-.41.41-1.4.41h-4.96ZM228.57 25q0 2.36-.51 4.11-.5 1.74-1.4 2.88-.89 1.14-2.11 1.69-1.22.56-2.63.56t-2.62-.56q-1.21-.55-2.09-1.69-.89-1.14-1.39-2.88-.5-1.75-.5-4.11 0-2.37.5-4.11.5-1.74 1.39-2.88.88-1.13 2.09-1.69t2.62-.56q1.41 0 2.63.56t2.11 1.69q.9 1.14 1.4 2.88.51 1.74.51 4.11Zm-3.19 0q0-1.96-.29-3.25-.28-1.29-.76-2.05-.49-.76-1.11-1.07-.63-.3-1.3-.3-.66 0-1.28.3-.62.31-1.1 1.07-.47.76-.75 2.05-.28 1.29-.28 3.25t.28 3.25q.28 1.29.75 2.05.48.76 1.1 1.07.62.31 1.28.31.67 0 1.3-.31.62-.31 1.11-1.07.48-.76.76-2.05.29-1.29.29-3.25Zm17.69 0q0 2.36-.51 4.11-.5 1.74-1.4 2.88-.89 1.14-2.11 1.69-1.22.56-2.63.56t-2.62-.56q-1.21-.55-2.09-1.69-.89-1.14-1.39-2.88-.5-1.75-.5-4.11 0-2.37.5-4.11.5-1.74 1.39-2.88.88-1.13 2.09-1.69t2.62-.56q1.41 0 2.63.56t2.11 1.69q.9 1.14 1.4 2.88.51 1.74.51 4.11Zm-3.19 0q0-1.96-.29-3.25-.28-1.29-.76-2.05-.49-.76-1.11-1.07-.63-.3-1.3-.3-.66 0-1.28.3-.62.31-1.1 1.07-.47.76-.75 2.05-.28 1.29-.28 3.25t.28 3.25q.28 1.29.75 2.05.48.76 1.1 1.07.62.31 1.28.31.67 0 1.3-.31.62-.31 1.11-1.07.48-.76.76-2.05.29-1.29.29-3.25Zm23.04 4.9-1.64 1.61-4.24-4.23-4.27 4.26-1.64-1.61 4.28-4.29-4.08-4.08 1.63-1.62 4.07 4.07 4.05-4.05 1.65 1.63-4.06 4.06 4.25 4.25Zm13.14-11.14-.64 3.77q.6-.13 1.15-.18.55-.06 1.06-.06 1.43 0 2.51.42 1.09.43 1.83 1.18t1.11 1.76q.38 1 .38 2.16 0 1.44-.51 2.63t-1.41 2.03q-.9.84-2.13 1.31-1.23.46-2.68.46-.85 0-1.61-.17-.76-.18-1.43-.47-.67-.3-1.24-.68-.57-.38-1.02-.81l.95-1.31q.3-.42.79-.42.31 0 .64.2.32.2.74.43.42.24.99.44.57.2 1.37.2.85 0 1.5-.27.65-.28 1.08-.77.43-.5.65-1.18.22-.68.22-1.48 0-1.47-.86-2.3-.86-.83-2.53-.83-1.29 0-2.64.47l-1.92-.55 1.5-8.77h8.92v1.31q0 .66-.41 1.07-.41.41-1.4.41h-4.96ZM298.72 25q0 2.36-.51 4.11-.5 1.74-1.4 2.88-.89 1.14-2.11 1.69-1.22.56-2.63.56t-2.62-.56q-1.21-.55-2.09-1.69-.89-1.14-1.39-2.88-.5-1.75-.5-4.11 0-2.37.5-4.11.5-1.74 1.39-2.88.88-1.13 2.09-1.69t2.62-.56q1.41 0 2.63.56t2.11 1.69q.9 1.14 1.4 2.88.51 1.74.51 4.11Zm-3.19 0q0-1.96-.29-3.25-.28-1.29-.76-2.05-.49-.76-1.11-1.07-.63-.3-1.3-.3-.66 0-1.28.3-.62.31-1.1 1.07-.47.76-.75 2.05-.28 1.29-.28 3.25t.28 3.25q.28 1.29.75 2.05.48.76 1.1 1.07.62.31 1.28.31.67 0 1.3-.31.62-.31 1.11-1.07.48-.76.76-2.05.29-1.29.29-3.25Z"/></svg>