<svg xmlns="http://www.w3.org/2000/svg" width="256" height="32" viewBox="0 0 256 32"><rect width="100%" height="100%" fill="#808080"/><path fill="#ffffff" d="M101.215 19.945h2.97q.32 0 .51.18t.19.48v1.18h-7.94v-.66q0-.2.08-.42.09-.22.27-.39l3.51-3.52q.44-.45.79-.86.35-.41.58-.81.23-.4.36-.81.12-.41.12-.87 0-.41-.12-.73-.12-.31-.34-.53-.22-.22-.53-.32-.3-.11-.69-.11-.35 0-.65.1-.3.1-.53.28-.23.18-.39.42t-.24.53q-.14.36-.36.48-.21.12-.62.06l-1.04-.18q.12-.84.46-1.46.35-.63.86-1.05.52-.42 1.19-.63.67-.22 1.43-.22.8 0 1.47.24.66.24 1.13.67.48.43.74 1.04.26.61.26 1.35 0 .64-.18 1.18-.19.55-.51 1.04-.31.5-.74.96-.42.47-.89.95l-2.6 2.66q.37-.11.74-.17.38-.06.71-.06Zm8.06-7.94-.41 2.41q.38-.08.74-.11.35-.04.68-.04.91 0 1.6.27.7.27 1.17.75t.71 1.13q.24.64.24 1.39 0 .92-.32 1.68-.32.76-.9 1.3-.58.54-1.36.83-.79.3-1.72.3-.54 0-1.03-.11-.49-.12-.92-.3-.43-.19-.79-.44-.36-.24-.65-.51l.61-.84q.19-.27.5-.27.2 0 .41.12.21.13.47.28.27.16.64.28.36.13.87.13.55 0 .96-.17.42-.18.69-.5.28-.31.42-.75.14-.43.14-.95 0-.94-.55-1.47t-1.62-.53q-.82 0-1.69.3l-1.23-.35.96-5.62h5.71v.84q0 .43-.26.69-.26.26-.9.26h-3.17Zm13.23-1.79-3.43 4.2-.4.5q.33-.17.72-.26.39-.09.84-.09.65 0 1.27.21.62.22 1.1.65.47.44.76 1.09.28.65.28 1.51 0 .81-.29 1.52-.3.7-.83 1.23-.54.53-1.3.83-.75.31-1.66.31-.93 0-1.67-.3-.73-.29-1.25-.83-.52-.53-.8-1.28-.28-.74-.28-1.66 0-.81.34-1.67.33-.86 1.02-1.79l2.76-3.7q.15-.2.42-.33.28-.14.64-.14h1.76Zm-2.98 10.08q.47 0 .86-.16.4-.16.68-.45.29-.28.45-.67.16-.39.16-.85 0-.49-.15-.89-.16-.39-.44-.67t-.67-.42q-.39-.14-.86-.14t-.86.16q-.38.16-.65.44-.28.28-.43.67-.15.39-.15.84 0 .48.13.87.13.4.39.68t.65.44q.38.15.89.15Zm16.96-1.16-1.05 1.03-2.71-2.71-2.74 2.73-1.05-1.03 2.74-2.75-2.61-2.6 1.04-1.04 2.61 2.6 2.59-2.59 1.06 1.04-2.6 2.6 2.72 2.72Zm6.65-5.51-1.04-.18q.12-.84.47-1.46.34-.63.86-1.05.51-.42 1.18-.63.67-.22 1.44-.22.8 0 1.44.23.64.23 1.1.63.46.41.7.95.24.55.24 1.18 0 .55-.12.97-.12.42-.36.73-.23.31-.57.53-.35.22-.78.36 1.04.33 1.55 1 .52.67.52 1.69 0 .86-.32 1.53-.32.66-.87 1.11-.54.45-1.26.69-.71.23-1.51.23-.88 0-1.52-.2-.65-.2-1.13-.59-.48-.4-.82-.96-.33-.57-.57-1.32l.87-.36q.34-.14.64-.07t.44.32q.14.28.31.55.18.28.42.49.24.21.56.34.32.13.77.13.51 0 .88-.16.38-.16.63-.43.25-.26.38-.59.12-.32.12-.65 0-.41-.09-.75t-.37-.58q-.28-.24-.8-.38t-1.4-.14v-1.4q.72-.01 1.2-.14t.77-.36q.28-.22.39-.54.12-.32.12-.71 0-.81-.46-1.24-.46-.42-1.22-.42-.35 0-.64.1-.3.1-.54.28-.23.18-.39.42t-.24.53q-.14.36-.36.48-.22.12-.62.06Zm12.26 6.32h2.97q.32 0 .5.18.19.18.19.48v1.18h-7.93v-.66q0-.2.08-.42.08-.22.27-.39l3.51-3.52q.44-.45.79-.86.35-.41.58-.81.23-.4.35-.81.13-.41.13-.87 0-.41-.12-.73-.12-.31-.34-.53-.22-.22-.53-.32-.31-.11-.69-.11-.35 0-.65.1-.3.1-.54.28-.23.18-.39.42t-.24.53q-.13.36-.35.48-.22.12-.62.06l-1.04-.18q.12-.84.46-1.46.34-.63.86-1.05.52-.42 1.18-.63.67-.22 1.44-.22.8 0 1.46.24.67.24 1.14.67.47.43.74 1.04.26.61.26 1.35 0 .64-.19 1.18-.19.55-.5 1.04-.32.5-.74.96-.43.47-.89.95l-2.61 2.66q.38-.11.75-.17.37-.06.71-.06Z"/></svg>