<svg xmlns="http://www.w3.org/2000/svg" width="300" height="40" viewBox="0 0 300 40"><rect width="100%" height="100%" fill="white
"/><path fill="#999999" d="m112.64 17.03-1.3-.23q.15-1.04.58-1.83.43-.78 1.08-1.3.64-.53 1.48-.8.83-.26 1.79-.26 1 0 1.81.28.8.29 1.37.8.57.5.88 1.18.3.68.3 1.47 0 .69-.15 1.21-.16.53-.45.92-.29.39-.72.66t-.97.45q1.3.41 1.94 1.25.64.84.64 2.11 0 1.08-.4 1.91-.4.83-1.08 1.4-.68.56-1.57.85-.9.29-1.9.29-1.09 0-1.9-.25-.81-.25-1.41-.74-.6-.49-1.02-1.2-.42-.71-.72-1.64l1.09-.45q.43-.18.81-.09.37.08.54.4.18.35.4.69.21.34.51.6.3.27.71.44.4.16.96.16.63 0 1.1-.21.47-.2.79-.53.31-.33.47-.74.15-.4.15-.81 0-.52-.11-.95-.11-.42-.46-.72-.35-.3-1-.47-.66-.17-1.76-.17v-1.76q.91-.01 1.51-.17t.96-.44q.35-.29.49-.69.14-.4.14-.88 0-1.02-.57-1.55t-1.52-.53q-.44 0-.81.12-.37.13-.66.36-.3.22-.5.52-.2.3-.3.66-.17.46-.44.61-.28.15-.78.07ZM132.96 20q0 1.89-.4 3.28-.41 1.4-1.12 2.31-.72.91-1.69 1.35-.98.45-2.11.45t-2.09-.45q-.97-.44-1.68-1.35-.71-.91-1.11-2.31-.4-1.39-.4-3.28 0-1.9.4-3.29.4-1.39 1.11-2.3.71-.91 1.68-1.36.96-.44 2.09-.44t2.11.44q.97.45 1.69 1.36.71.91 1.12 2.3.4 1.39.4 3.29Zm-2.55 0q0-1.57-.23-2.6t-.61-1.64q-.39-.61-.89-.86-.5-.24-1.04-.24-.53 0-1.02.24-.5.25-.88.86t-.6 1.64q-.23 1.03-.23 2.6t.23 2.6q.22 1.03.6 1.64.38.61.88.85.49.25 1.02.25.54 0 1.04-.25.5-.24.89-.85.38-.61.61-1.64.23-1.03.23-2.6Zm14.15 0q0 1.89-.4 3.28-.41 1.4-1.12 2.31-.72.91-1.69 1.35-.98.45-2.11.45t-2.09-.45q-.97-.44-1.68-1.35-.71-.91-1.11-2.31-.4-1.39-.4-3.28 0-1.9.4-3.29.4-1.39 1.11-2.3.71-.91 1.68-1.36.96-.44 2.09-.44t2.11.44q.97.45 1.69 1.36.71.91 1.12 2.3.4 1.39.4 3.29Zm-2.55 0q0-1.57-.23-2.6t-.61-1.64q-.39-.61-.89-.86-.5-.24-1.04-.24-.53 0-1.02.24-.5.25-.88.86t-.6 1.64q-.23 1.03-.23 2.6t.23 2.6q.22 1.03.6 1.64.38.61.88.85.49.25 1.02.25.54 0 1.04-.25.5-.24.89-.85.38-.61.61-1.64.23-1.03.23-2.6Zm18.43 3.92-1.31 1.29-3.39-3.39-3.42 3.41-1.31-1.29 3.42-3.43-3.26-3.26 1.3-1.3 3.26 3.26 3.24-3.24 1.32 1.3-3.25 3.25 3.4 3.4Zm8.66-2.14h4.4v-4.73q0-.67.09-1.48l-4.49 6.21Zm6.55 0h1.82v1.43q0 .2-.13.34-.13.15-.37.15h-1.32v3.53h-2.15V23.7h-6.1q-.25 0-.44-.16-.19-.15-.24-.38l-.26-1.25 6.85-9.15h2.34v9.02ZM189.08 20q0 1.89-.4 3.28-.41 1.4-1.12 2.31-.72.91-1.69 1.35-.98.45-2.11.45t-2.09-.45q-.97-.44-1.68-1.35-.71-.91-1.11-2.31-.4-1.39-.4-3.28 0-1.9.4-3.29.4-1.39 1.11-2.3.71-.91 1.68-1.36.96-.44 2.09-.44t2.11.44q.97.45 1.69 1.36.71.91 1.12 2.3.4 1.39.4 3.29Zm-2.55 0q0-1.57-.23-2.6t-.61-1.64q-.39-.61-.89-.86-.5-.24-1.04-.24-.53 0-1.02.24-.5.25-.88.86t-.6 1.64q-.23 1.03-.23 2.6t.23 2.6q.22 1.03.6 1.64.38.61.88.85.49.25 1.02.25.54 0 1.04-.25.5-.24.89-.85.38-.61.61-1.64.23-1.03.23-2.6Z"/></svg>