<svg xmlns="http://www.w3.org/2000/svg" width="140" height="70" viewBox="0 0 140 70"><rect width="100%" height="100%" fill="white"/><path fill="#999999" d="M34.455 40.92h2.86v2.03h-8.8v-2.03h3.22v-9.28q0-.55.03-1.13l-2.28 1.91q-.2.16-.39.2-.2.03-.37 0-.17-.03-.3-.11-.13-.09-.2-.19l-.86-1.17 4.86-4.13h2.23v13.9Zm7.23-3.96h4.84v-5.21q0-.73.09-1.63l-4.93 6.84Zm7.2 0h2v1.57q0 .22-.14.38t-.41.16h-1.45v3.88h-2.36v-3.88h-6.71q-.28 0-.49-.17-.21-.17-.26-.43l-.29-1.37 7.54-10.07h2.57v9.93ZM63.655 35q0 2.08-.44 3.61-.45 1.54-1.23 2.54-.79 1-1.86 1.49-1.08.49-2.32.49-1.24 0-2.3-.49-1.06-.49-1.85-1.49-.78-1-1.22-2.54-.44-1.53-.44-3.61 0-2.09.44-3.62.44-1.53 1.22-2.53.79-1 1.85-1.49t2.3-.49q1.24 0 2.32.49 1.07.49 1.86 1.49.78 1 1.23 2.53.44 1.53.44 3.62Zm-2.8 0q0-1.73-.25-2.86-.26-1.14-.68-1.81-.42-.67-.97-.94-.55-.27-1.15-.27-.58 0-1.13.27-.54.27-.96.94-.42.67-.66 1.81-.25 1.13-.25 2.86 0 1.72.25 2.86.24 1.13.66 1.8.42.67.96.94.55.27 1.13.27.6 0 1.15-.27.55-.27.97-.94.42-.67.68-1.8.25-1.14.25-2.86Zm20.27 4.31-1.44 1.42-3.73-3.73-3.76 3.75-1.44-1.42 3.76-3.77-3.59-3.59 1.43-1.43 3.59 3.59 3.56-3.57 1.46 1.43-3.58 3.58 3.74 3.74Zm7.56-12.27h10.99v1.18q0 .53-.11.85-.11.33-.22.55l-6.03 12.41q-.19.38-.53.65t-.91.27h-1.97l6.15-12.15q.21-.38.41-.69.2-.32.46-.6h-7.61q-.26 0-.44-.19-.19-.19-.19-.44v-1.84Zm23.95 7.96q0 2.08-.45 3.61-.45 1.54-1.23 2.54-.79 1-1.86 1.49t-2.32.49q-1.24 0-2.3-.49-1.06-.49-1.84-1.49t-1.22-2.54q-.44-1.53-.44-3.61 0-2.09.44-3.62.44-1.53 1.22-2.53.78-1 1.84-1.49t2.3-.49q1.25 0 2.32.49 1.07.49 1.86 1.49.78 1 1.23 2.53.45 1.53.45 3.62Zm-2.81 0q0-1.73-.25-2.86-.26-1.14-.68-1.81-.42-.67-.97-.94-.55-.27-1.15-.27-.58 0-1.12.27-.55.27-.97.94-.41.67-.66 1.81-.25 1.13-.25 2.86 0 1.72.25 2.86.25 1.13.66 1.8.42.67.97.94.54.27 1.12.27.6 0 1.15-.27.55-.27.97-.94.42-.67.68-1.8.25-1.14.25-2.86Z"/></svg>