<?xml version="1.0" encoding="UTF-8" standalone="no"?>
<svg
   xmlns:dc="http://purl.org/dc/elements/1.1/"
   xmlns:cc="http://creativecommons.org/ns#"
   xmlns:rdf="http://www.w3.org/1999/02/22-rdf-syntax-ns#"
   xmlns:svg="http://www.w3.org/2000/svg"
   xmlns="http://www.w3.org/2000/svg"
   height="69.168892"
   width="146.11029"
   xml:space="preserve"
   viewBox="0 0 146.11029 69.168893"
   y="0px"
   x="0px"
   id="Livello_1"
   version="1.1">
<g
   transform="translate(-17.65,-64.011106)"
   id="g38">
	<path
   style="fill:#ffffff"
   id="path4"
   d="m 79.98,116.61 c 0,0.16 -0.13,0.3 -0.29,0.3 v 0 h -1.83 -0.01 c -0.17,0 -0.3,-0.14 -0.3,-0.3 v -0.02 0 l 1.18,-7.85 v 0 c 0.01,-0.09 0.09,-0.16 0.18,-0.16 0.09,0 0.16,0.06 0.18,0.15 v 0.01 c 0,0.01 0,0.01 0,0.02 l 0.89,7.85 v 0 c 0,-0.01 0,-0.01 0,0 m 6.37,7.7 h -0.31 c -0.41,-0.02 -0.71,-0.29 -0.76,-0.57 -0.96,-7.32 -1.92,-14.64 -2.88,-21.97 h -5.75 l -3.31,21.97 c -0.07,0.32 -0.36,0.55 -0.71,0.57 h -0.36 c -0.29,0 -0.53,0.24 -0.53,0.54 v 7.7 h 6.42 v -7.7 c 0,-0.29 -0.24,-0.54 -0.54,-0.54 h -0.71 c -0.4,-0.01 -0.45,-0.33 -0.39,-0.67 0.15,-0.99 0.31,-1.99 0.47,-2.98 0.08,-0.25 0.23,-0.41 0.5,-0.44 h 2.44 c 0.28,0.04 0.47,0.17 0.5,0.5 0.13,1.07 0.27,2.14 0.4,3.21 -0.09,0.31 -0.22,0.35 -0.56,0.37 h -0.51 c -0.29,0 -0.54,0.24 -0.54,0.54 v 7.7 h 7.66 v -7.7 c 0,-0.28 -0.24,-0.53 -0.53,-0.53"
   class="st0" />
	<path
   style="fill:#ffffff"
   id="path6"
   d="m 156.86,116.59 v 0.02 c 0,0.16 -0.13,0.3 -0.29,0.3 v 0 h -1.83 -0.01 c -0.17,0 -0.3,-0.14 -0.3,-0.3 0,-0.01 0,-0.01 0,-0.02 v 0 l 1.18,-7.85 v 0 c 0.01,-0.09 0.09,-0.16 0.18,-0.16 0.09,0 0.16,0.06 0.18,0.15 v 0.01 c 0,0.01 0,0.01 0,0.02 z m 6.37,7.72 h -0.31 c -0.41,-0.02 -0.71,-0.29 -0.76,-0.57 -0.96,-7.32 -1.92,-14.64 -2.88,-21.97 h -5.75 l -3.31,21.97 c -0.07,0.32 -0.37,0.55 -0.71,0.57 h -0.36 c -0.3,0 -0.53,0.24 -0.53,0.54 v 7.7 h 6.42 v -7.7 c 0,-0.29 -0.24,-0.54 -0.54,-0.54 h -0.71 c -0.4,-0.01 -0.45,-0.33 -0.4,-0.67 l 0.47,-2.98 c 0.08,-0.25 0.23,-0.41 0.5,-0.44 h 2.44 c 0.28,0.04 0.47,0.17 0.5,0.5 0.13,1.07 0.27,2.14 0.4,3.21 -0.09,0.31 -0.22,0.35 -0.55,0.37 h -0.51 c -0.3,0 -0.54,0.24 -0.54,0.54 v 7.7 h 7.66 v -7.7 c 0.01,-0.28 -0.24,-0.53 -0.53,-0.53"
   class="st0" />
	<path
   style="fill:#ffffff"
   id="path8"
   d="m 110.98,109.7 c 0.3,0 0.65,0.26 0.65,0.7 0,-0.01 0.01,-0.02 0.01,-0.03 v 13.31 c -0.02,0.42 -0.35,0.67 -0.65,0.67 0,0 0,0 0,0 h -0.36 c -0.36,0 -0.65,0.29 -0.65,0.65 v 7.55 h 1.66 4.36 1.66 V 125 c 0,-0.36 -0.29,-0.65 -0.65,-0.65 h -0.36 v 0 c -0.3,0.01 -0.65,-0.26 -0.65,-0.69 v 0 -13.38 c 0.05,-0.36 0.37,-0.58 0.64,-0.58 v 0 h 0.85 v 0 c 0.3,0 0.65,0.26 0.65,0.7 0,0 0,-0.01 0,-0.01 v 4.66 c 0,0.13 0.1,0.23 0.23,0.23 h 2.22 c 0.12,0 0.23,-0.1 0.23,-0.23 v -13.3 h -1.28 -1.39 -2.13 -4.36 -2.15 -0.52 -2.15 v 13.3 c 0,0.13 0.1,0.23 0.23,0.23 h 2.22 c 0.13,0 0.23,-0.1 0.23,-0.23 v -4.66 c 0,0 0,0.01 0,0.01 0,-0.43 0.34,-0.7 0.65,-0.7 v 0 z"
   class="st0" />
	<path
   style="fill:#ffffff"
   id="path10"
   d="m 38.98,109.53 c -0.29,0.03 -0.59,0.29 -0.59,0.69 0,0 0,-0.01 0,-0.01 v 13.37 c 0.04,0.38 0.36,0.62 0.64,0.62 0,0 0,0 -0.01,0 h 0.26 c 0.35,0 0.63,0.28 0.63,0.63 v 7.71 h -7.43 v -7.71 c 0,-0.35 0.29,-0.63 0.63,-0.63 h 0.24 c 0,0 0,0 0,0 0.3,0.01 0.65,-0.26 0.65,-0.7 0,0 0,0 0,0 v -13.29 0 c 0,-0.41 -0.31,-0.67 -0.6,-0.69 h -0.3 c -0.35,0 -0.63,-0.28 -0.63,-0.63 v -7.18 h 7.43 v 7.18 c 0,0.35 -0.28,0.63 -0.63,0.63 h -0.29 z"
   class="st0" />
	<path
   style="fill:#ffffff"
   id="path12"
   d="m 25.19,124.33 h -1.21 c -0.18,0 -0.58,-0.14 -0.58,-0.69 0.01,-4.49 0,-8.98 0,-13.47 0,-0.48 0.32,-0.62 0.52,-0.62 0.38,-0.01 0.77,0.02 1.18,0 1.65,0.18 1.45,3.83 1.53,7.36 0.01,5.88 -0.18,7.42 -1.44,7.42 m 1.37,-22.58 h -8.91 v 7.4 c 0,0.22 0.18,0.41 0.41,0.41 h 0.5 c 0,0 -0.01,0 -0.01,0 0.3,-0.01 0.65,0.26 0.65,0.7 0,0 0,0 0,-0.01 v 0.09 13.29 c 0,0 0,0 0,-0.01 0,0.43 -0.35,0.7 -0.65,0.7 0,0 0,0 0.01,0 h -0.48 c -0.24,0 -0.43,0.19 -0.43,0.43 v 7.36 c 0,0.24 0.19,0.43 0.43,0.43 h 8.68 c 4.66,0 4.43,-8.22 4.39,-15.67 0.08,-7.32 0.14,-15.12 -4.59,-15.12"
   class="st0" />
	<path
   style="fill:#ffffff"
   id="path14"
   d="m 50.63,109.58 c 0.3,0 0.65,0.26 0.65,0.7 0,-0.01 0,-0.01 0.01,-0.02 v 13.38 c 0,-0.01 0,-0.01 -0.01,-0.02 0,0.39 -0.28,0.65 -0.56,0.69 h -0.67 c -0.2,0 -0.36,0.16 -0.36,0.36 v 7.88 h 6.53 v -7.88 c 0,-0.2 -0.16,-0.36 -0.36,-0.36 h -0.89 c -0.27,-0.04 -0.55,-0.29 -0.56,-0.67 v -14.46 c 0.03,-0.28 0.41,-0.34 0.47,-0.01 1.29,7.79 2.57,15.59 3.85,23.38 h 1.25 l 3.52,-23.4 c 0.03,-0.3 0.41,-0.3 0.46,-0.01 v 14.47 0 c 0,0.43 -0.35,0.7 -0.65,0.7 0,0 0.01,0 0.01,0.01 h -0.26 c -0.2,0 -0.36,0.16 -0.36,0.36 v 7.88 h 6.97 v -7.88 c 0,-0.2 -0.16,-0.36 -0.36,-0.36 h -0.43 c 0,0 0.01,0 0.01,-0.01 -0.3,0.01 -0.65,-0.26 -0.65,-0.7 0,0 0,0 0,0 v -13.43 c 0.05,-0.38 0.36,-0.61 0.64,-0.6 v 0 h 0.43 c 0.2,0 0.36,-0.16 0.36,-0.36 v -7.44 h -0.66 v -0.02 h -7.07 l -1.78,12.55 c -0.06,0.38 -0.5,0.34 -0.55,0 l -1.89,-12.54 h -4.18 v 0.02 h -3.86 v 7.44 c 0,0.2 0.16,0.36 0.36,0.36 h 0.59 z"
   class="st0" />
	<path
   style="fill:#ffffff"
   id="path16"
   d="m 130.07,121.54 c 0,1.84 -0.76,2.93 -1.69,2.93 -0.93,0 -1.69,-1.09 -1.69,-2.93 v -9.19 c 0,-1.61 0.76,-2.96 1.69,-2.96 0.93,0 1.69,1.36 1.69,2.96 z m -1.61,-20.71 h -0.13 c -3.29,0 -5.99,2.22 -5.99,8.43 v 14.44 c 0,8.47 2.7,9.48 5.99,9.48 h 0.13 c 3.29,0 5.99,-1.62 5.99,-9.48 v -14.37 c 0.01,-6.1 -2.69,-8.5 -5.99,-8.5"
   class="st0" />
	<path
   style="fill:#ffffff"
   id="path18"
   d="M 88.9,101.75 H 92 v -0.01 h 3.8 c 1.37,6.51 2.74,13.02 4.12,19.53 0.14,0.49 0.74,0.35 0.75,-0.16 v 0 -11.56 h -1.45 c -0.17,0 -0.31,-0.14 -0.31,-0.31 v -7.5 h 6.31 v 7.5 c 0,0.17 -0.14,0.31 -0.31,0.31 h -1.45 v 22.99 h -1 -1.81 -1.73 c -1.7,-7.67 -3.4,-15.33 -5.1,-22.99 -0.1,-0.41 -0.62,-0.52 -0.66,0 v 14.57 h 1.63 c 0.17,0 0.31,0.14 0.31,0.31 v 8.1 h -6.3 v -8.1 c 0,-0.17 0.14,-0.31 0.31,-0.31 h 1.26 v -14.49 h -1.16 c -0.17,0 -0.31,-0.14 -0.31,-0.31 z"
   class="st0" />
	<path
   style="fill:#ffffff"
   id="path20"
   d="m 141.99,109.87 c -0.3,-0.01 -0.64,0.26 -0.65,0.68 l 2.03,13.5 c 0.05,0.3 0.41,0.31 0.45,0 0.48,-4.5 0.95,-9 1.43,-13.5 0,0 0,0.01 0,0.01 0,-0.43 -0.35,-0.7 -0.65,-0.7 0,0 0,0 0.01,0 h -0.33 c -0.32,0 -0.58,-0.26 -0.58,-0.58 v -7.49 h 6.02 v 7.49 c 0,0.32 -0.26,0.58 -0.58,0.58 h -0.23 0.01 c -0.25,0 -0.54,0.18 -0.62,0.5 l -2.72,22.18 h -4.84 l -3.53,-22 c 0,0.01 -0.01,0.02 -0.01,0.02 0,-0.43 -0.35,-0.7 -0.65,-0.7 h 0.01 -0.32 c -0.32,0 -0.58,-0.26 -0.58,-0.58 v -7.49 h 6.85 v 7.49 c 0,0.29 -0.22,0.54 -0.5,0.58 -0.03,0 -0.03,0 -0.02,0.01"
   class="st0" />
	<path
   style="fill:#ffffff"
   id="path22"
   d="m 54.19,79.54 c 0,0.16 -0.13,0.3 -0.29,0.3 v 0 h -1.83 -0.01 c -0.17,0 -0.3,-0.14 -0.3,-0.3 0,-0.01 0,-0.01 0,-0.02 v 0 l 1.18,-7.85 c 0.01,-0.09 0.09,-0.16 0.18,-0.16 0.09,0 0.16,0.06 0.18,0.15 v 0.01 c 0,0.01 0,0.01 0,0.02 l 0.89,7.85 v 0 c 0,-0.01 0,0 0,0 m 6.37,7.71 H 60.25 C 59.84,87.23 59.54,86.96 59.49,86.68 58.53,79.36 57.57,72.04 56.61,64.71 h -5.75 l -3.31,21.97 c -0.07,0.32 -0.37,0.55 -0.71,0.57 h -0.36 c -0.29,0 -0.53,0.24 -0.53,0.54 v 7.7 h 6.42 v -7.7 c 0,-0.29 -0.24,-0.54 -0.54,-0.54 h -0.71 c -0.4,-0.01 -0.45,-0.33 -0.4,-0.67 0.16,-0.99 0.31,-1.99 0.47,-2.98 0.08,-0.25 0.23,-0.41 0.5,-0.44 h 2.44 c 0.28,0.04 0.47,0.17 0.5,0.5 0.13,1.07 0.27,2.14 0.4,3.21 -0.09,0.31 -0.22,0.35 -0.56,0.37 h -0.51 c -0.3,0 -0.54,0.24 -0.54,0.54 v 7.7 h 7.66 v -7.7 c 0.02,-0.29 -0.22,-0.53 -0.52,-0.53"
   class="st0" />
	<path
   style="fill:#ffffff"
   id="path24"
   d="m 140.42,79.53 v 0.02 c 0,0.16 -0.13,0.3 -0.29,0.3 v 0 h -1.83 -0.01 c -0.17,0 -0.3,-0.14 -0.3,-0.3 v -0.02 0 l 1.18,-7.85 c 0.01,-0.09 0.09,-0.16 0.18,-0.16 0.09,0 0.16,0.06 0.18,0.15 v 0.01 c 0,0.01 0,0.01 0,0.02 z m 6.37,7.72 h -0.31 c -0.41,-0.02 -0.7,-0.29 -0.76,-0.57 -0.96,-7.32 -1.92,-14.64 -2.88,-21.97 h -5.75 l -3.31,21.97 c -0.07,0.32 -0.36,0.55 -0.7,0.57 h -0.37 c -0.29,0 -0.53,0.24 -0.53,0.54 v 7.7 h 6.42 v -7.7 c 0,-0.29 -0.24,-0.54 -0.54,-0.54 h -0.71 c -0.4,-0.01 -0.45,-0.33 -0.39,-0.67 0.16,-0.99 0.31,-1.99 0.47,-2.98 0.08,-0.25 0.23,-0.41 0.5,-0.44 h 2.44 c 0.28,0.04 0.47,0.17 0.5,0.5 l 0.4,3.21 c -0.09,0.31 -0.22,0.35 -0.55,0.37 h -0.52 c -0.29,0 -0.53,0.24 -0.53,0.54 v 7.7 h 7.66 v -7.7 c 0,-0.29 -0.24,-0.53 -0.54,-0.53"
   class="st0" />
	<path
   style="fill:#ffffff"
   id="path26"
   d="m 44.34,76.76 h -2.98 c -0.24,0 -0.44,-0.2 -0.44,-0.44 v -1.87 c 0.02,-3.07 -2.96,-2.55 -3.01,0.07 -0.27,3.39 -0.21,6.79 -0.07,10.18 -0.17,2.77 2.81,3.25 2.88,0.43 0.02,-0.58 0.04,-1.16 0.07,-1.74 0,-0.39 -0.23,-0.62 -0.8,-0.63 H 39.93 39.8 c -0.24,0 -0.44,-0.2 -0.44,-0.44 v -3.61 c 0,-0.24 0.2,-0.43 0.44,-0.43 h 6.29 c 0.24,0 0.43,0.2 0.43,0.43 v 3.61 c 0,0.24 -0.2,0.44 -0.43,0.44 h -0.5 -0.2 c -0.4,0.04 -0.56,0.3 -0.6,0.67 v 11.99 c -0.59,0.01 -1.18,0.02 -1.77,0.03 -0.25,-0.57 -0.49,-1.14 -0.74,-1.71 -0.19,-0.25 -0.38,-0.3 -0.57,0.07 -1.38,2.69 -5.08,2.91 -6.91,0.7 C 33.54,93 33.36,90.85 33.35,86.58 33.34,82.89 33.33,79.19 33.32,75.5 c 0.08,-5.19 0.27,-10.21 2.95,-11.2 0.97,-0.36 3.05,-0.61 4,0.69 0.33,0.39 0.58,0.58 0.67,0.07 v -0.03 c 0,-0.24 0.2,-0.43 0.44,-0.43 h 2.98 c 0.24,0 0.43,0.2 0.43,0.43 v 11.32 c -0.02,0.22 -0.21,0.41 -0.45,0.41"
   class="st0" />
	<path
   style="fill:#ffffff"
   id="path28"
   d="m 63.64,76.27 h 2.99 c 0.17,0 0.31,-0.14 0.31,-0.31 v -2.39 0.01 c 0.01,-0.54 0.24,-0.81 0.68,-0.83 h 2.27 c 0.3,-0.01 0.45,0.32 0.26,0.7 -2.53,4.51 -5.07,9.03 -7.6,13.54 -0.08,0.32 -0.15,0.65 -0.23,0.98 v 7.51 h 10.69 v 0 h 1.85 v -11.9 h -3.9 v 2.8 c 0,0 -0.01,0.01 -0.01,0.01 0,0.57 -0.08,1.1 -0.75,1.1 H 68 c -0.55,0 -0.74,-0.28 -0.44,-0.79 2.4,-4.45 4.8,-8.9 7.2,-13.35 0.09,-0.2 0.14,-0.18 0.14,-0.5 v -7.87 c 0,-0.17 -0.14,-0.3 -0.31,-0.3 H 63.64 c -0.17,0 -0.31,0.14 -0.31,0.3 v 10.97 c 0,0.18 0.14,0.32 0.31,0.32"
   class="st0" />
	<path
   style="fill:#ffffff"
   id="path30"
   d="m 77.24,76.27 h 2.99 c 0.17,0 0.31,-0.14 0.31,-0.31 v -2.39 0.01 c 0.01,-0.54 0.24,-0.81 0.68,-0.83 h 2.27 c 0.29,-0.01 0.45,0.32 0.26,0.7 -2.53,4.51 -5.07,9.03 -7.6,13.54 -0.08,0.32 -0.15,0.65 -0.23,0.98 v 7.51 H 86.6 v 0 h 1.85 v -11.9 h -3.9 v 2.8 c 0,0 -0.01,0.01 -0.01,0.01 0.01,0.57 -0.08,1.1 -0.75,1.1 H 81.6 c -0.55,0 -0.74,-0.28 -0.44,-0.79 2.4,-4.45 4.8,-8.9 7.2,-13.35 0.09,-0.2 0.14,-0.18 0.14,-0.5 v -7.87 c 0,-0.17 -0.14,-0.3 -0.31,-0.3 H 77.24 c -0.17,0 -0.31,0.14 -0.31,0.3 v 10.97 c 0,0.18 0.14,0.32 0.31,0.32"
   class="st0" />
	<path
   style="fill:#ffffff"
   id="path32"
   d="m 89.78,64.68 h 3.98 1.03 3.87 2.49 1.32 v 12.27 h -3.49 c -0.18,0 -0.33,-0.15 -0.33,-0.32 v -3.3 c 0,-0.41 -0.31,-0.67 -0.59,-0.69 h -1.8 c -0.29,0.02 -0.6,0.29 -0.6,0.69 v 4.01 c 0,0.43 0.35,0.7 0.65,0.7 0,0 -0.01,0 -0.01,0 h 3.13 c 0.15,0 0.28,0.12 0.28,0.28 v 2.73 c 0,0.15 -0.13,0.28 -0.28,0.28 h -3.15 c -0.29,0.01 -0.62,0.28 -0.62,0.7 v 4.57 c 0,0.43 0.34,0.69 0.63,0.7 h 1.85 c 0.29,0 0.62,-0.26 0.63,-0.67 V 83.2 h 3.68 v 12.28 h -2.66 -1.02 -9.11 v -7.5 c 0,-0.38 0.31,-0.7 0.7,-0.7 h 0.88 V 73.07 c 0,-0.4 -0.46,-0.55 -1.02,-0.57 H 90.2 90.18 90.16 v 0 c -0.22,-0.02 -0.39,-0.2 -0.39,-0.42 v -7.4 z"
   class="st0" />
	<path
   style="fill:#ffffff"
   id="path34"
   d="m 107.76,72.63 c 0.3,0 0.65,0.26 0.65,0.7 0,-0.01 0.01,-0.02 0.01,-0.03 v 13.31 c -0.02,0.42 -0.35,0.67 -0.65,0.67 0,0 0,0 0,0 h -0.36 c -0.36,0 -0.65,0.29 -0.65,0.65 v 7.55 h 1.66 4.35 1.66 v -7.55 c 0,-0.36 -0.29,-0.65 -0.65,-0.65 h -0.36 c 0,0 0,0 0,0 -0.3,0.01 -0.65,-0.26 -0.65,-0.69 v 0 -13.38 c 0.05,-0.36 0.36,-0.58 0.64,-0.58 v 0 h 0.85 v 0 c 0.3,0 0.65,0.26 0.65,0.7 0,0 0.01,-0.01 0.01,-0.01 v 4.66 c 0,0.13 0.1,0.23 0.23,0.23 h 2.22 c 0.12,0 0.23,-0.1 0.23,-0.23 v -13.3 h -1.28 -1.39 -2.13 -4.35 -2.15 -0.52 -2.15 v 13.3 c 0,0.13 0.1,0.23 0.23,0.23 h 2.22 c 0.12,0 0.23,-0.1 0.23,-0.23 v -4.66 c 0,0 0,0.01 0,0.01 0,-0.43 0.35,-0.7 0.65,-0.7 v 0 z"
   class="st0" />
	<path
   style="fill:#ffffff"
   id="path36"
   d="m 122.9,72.63 c 0.3,0 0.65,0.26 0.65,0.7 0,-0.01 0.01,-0.02 0.01,-0.03 v 13.31 c -0.02,0.42 -0.35,0.67 -0.65,0.67 v 0 h -0.36 c -0.36,0 -0.65,0.29 -0.65,0.65 v 7.55 h 1.66 4.35 1.66 v -7.55 c 0,-0.36 -0.29,-0.65 -0.65,-0.65 h -0.36 v 0 c -0.3,0.01 -0.65,-0.26 -0.65,-0.69 v 0 -13.38 c 0.06,-0.36 0.37,-0.58 0.64,-0.58 v 0 h 0.85 v 0 c 0.3,0 0.65,0.26 0.65,0.7 0,0 0,-0.01 0.01,-0.01 v 4.66 c 0,0.13 0.1,0.23 0.23,0.23 h 2.22 c 0.13,0 0.23,-0.1 0.23,-0.23 v -13.3 h -1.28 -1.39 -2.14 -4.35 -2.15 -0.52 -2.15 v 13.3 c 0,0.13 0.1,0.23 0.23,0.23 h 2.22 c 0.12,0 0.23,-0.1 0.23,-0.23 v -4.66 c 0,0 0,0.01 0,0.01 0,-0.43 0.35,-0.7 0.65,-0.7 v 0 z"
   class="st0" />
</g>
</svg>